<?xml version="1.0" encoding="UTF-8"?>
<svg xmlns="http://www.w3.org/2000/svg" width="1343.111" height="1343.11" viewBox="0 0 1343.111 1343.11">
  <defs>
    <style>.a{fill:#f2f2f3;}</style>
  </defs>
  <path class="a" d="M380.415,480.529c0-370.89,300.666-671.554,671.556-671.554s671.556,300.664,671.556,671.554-300.666,671.556-671.556,671.556S380.415,851.419,380.415,480.529ZM791.233-136.686a670.24,670.24,0,0,0,0,1234.429,669.658,669.658,0,0,0,930.593-617.215A670.228,670.228,0,0,0,791.233-136.686ZM439.92,480.529c0-338.026,274.024-612.049,612.05-612.049s612.05,274.023,612.05,612.049-274.024,612.05-612.05,612.05S439.92,818.555,439.92,480.529ZM814.395-81.856a610.7,610.7,0,0,0,0,1124.771,610.171,610.171,0,0,0,847.926-562.387A610.687,610.687,0,0,0,814.395-81.856ZM490.924,480.529c0-309.857,251.189-561.045,561.047-561.045s561.047,251.187,561.047,561.045-251.189,561.047-561.047,561.047S490.924,790.386,490.924,480.529ZM834.248-34.861a559.668,559.668,0,0,0,0,1030.78A559.347,559.347,0,0,0,1447.488,85.01,559.953,559.953,0,0,0,834.248-34.861ZM541.928,480.529c0-281.689,228.354-510.042,510.043-510.042s510.042,228.353,510.042,510.042S1333.659,990.571,1051.97,990.571,541.928,762.217,541.928,480.529ZM854.1,12.134a508.637,508.637,0,0,0,0,936.789,508.342,508.342,0,0,0,557.321-827.847A508.9,508.9,0,0,0,854.1,12.134Zm-265.419,468.4C588.682,224.662,796.1,17.24,1051.97,17.24s463.288,207.421,463.288,463.288S1307.838,943.817,1051.97,943.817,588.682,736.4,588.682,480.529ZM872.3,55.214A463.109,463.109,0,1,0,1051.97,18.941,460.047,460.047,0,0,0,872.3,55.214ZM631.185,480.529c0-232.393,188.392-420.785,420.785-420.785s420.785,188.392,420.785,420.785S1284.363,901.313,1051.97,901.313,631.185,712.922,631.185,480.529ZM888.845,94.377A420.472,420.472,0,1,0,1051.97,61.444,417.679,417.679,0,0,0,888.845,94.377ZM669.439,480.529C669.439,269.262,840.7,98,1051.97,98S1434.5,269.262,1434.5,480.529,1263.236,863.06,1051.97,863.06,669.439,691.795,669.439,480.529Zm234.3-350.9A382.082,382.082,0,1,0,1051.97,99.7,379.558,379.558,0,0,0,903.734,129.624Zm-198.592,350.9c0-191.549,155.281-346.829,346.829-346.829S1398.8,288.98,1398.8,480.529,1243.518,827.357,1051.97,827.357,705.142,672.077,705.142,480.529ZM917.631,162.521A346.269,346.269,0,1,0,1051.97,135.4,343.984,343.984,0,0,0,917.631,162.521ZM737.444,480.529C737.444,306.821,878.262,166,1051.97,166S1366.5,306.821,1366.5,480.529,1225.679,795.055,1051.97,795.055,737.444,654.236,737.444,480.529ZM930.2,192.285A313.863,313.863,0,1,0,1051.97,167.7,311.792,311.792,0,0,0,930.2,192.285ZM767.2,480.529c0-157.277,127.5-284.774,284.774-284.774s284.773,127.5,284.773,284.774S1209.246,765.3,1051.97,765.3,767.2,637.8,767.2,480.529Zm84.61-200.164a283.073,283.073,0,1,0,200.164-82.911A281.223,281.223,0,0,0,851.807,280.365ZM796.949,480.529c0-140.845,114.177-255.021,255.021-255.021s255.021,114.177,255.021,255.021S1192.815,735.55,1051.97,735.55,796.949,621.373,796.949,480.529Zm75.9-179.126a253.324,253.324,0,1,0,179.125-74.2A251.667,251.667,0,0,0,872.845,301.4ZM826.7,480.529c0-124.412,100.857-225.269,225.269-225.269s225.268,100.857,225.268,225.269S1176.383,705.8,1051.97,705.8,826.7,604.941,826.7,480.529Zm67.182-158.088a223.572,223.572,0,1,0,158.087-65.48A222.109,222.109,0,0,0,893.884,322.441ZM856.454,480.529c0-107.981,87.536-195.516,195.516-195.516s195.516,87.535,195.516,195.516-87.536,195.517-195.516,195.517S856.454,588.509,856.454,480.529ZM914.922,343.48a193.817,193.817,0,1,0,137.048-56.767A192.547,192.547,0,0,0,914.922,343.48ZM890.457,480.529A161.513,161.513,0,1,1,1051.97,642.042,161.512,161.512,0,0,1,890.457,480.529Zm1.7,0c0,88.121,71.691,159.813,159.813,159.813s159.813-71.692,159.813-159.813-71.692-159.813-159.813-159.813S892.157,392.407,892.157,480.529Zm32.3,0a127.511,127.511,0,1,1,127.511,127.51A127.51,127.51,0,0,1,924.459,480.529Zm1.7,0a125.811,125.811,0,1,0,125.811-125.81A125.954,125.954,0,0,0,926.159,480.529Zm33.153,0a92.658,92.658,0,1,1,92.658,92.658A92.659,92.659,0,0,1,959.313,480.529Zm1.7,0a90.958,90.958,0,1,0,90.958-90.958A91.06,91.06,0,0,0,961.013,480.529Z" transform="translate(-380.415 191.025)" />
</svg>  